<?xml version="1.0" standalone="no"?>
<!DOCTYPE svg PUBLIC "-//W3C//DTD SVG 20010904//EN" "http://www.w3.org/TR/2001/REC-SVG-20010904/DTD/svg10.dtd">
<svg version="1.0" xmlns="http://www.w3.org/2000/svg" width="180.000000pt" height="180.000000pt"
        viewBox="0 0 180.000000 180.000000" preserveAspectRatio="xMidYMid meet">

        <g transform="translate(0.000000,180.000000) scale(0.100000,-0.100000)" fill="#000000" stroke="none">
                <path d="M1463 1745 c-49 -25 -103 -75 -169 -159 l-31 -40 -59 22 c-88 32
-181 52 -251 52 l-61 0 -36 50 c-41 58 -88 90 -130 90 -46 0 -101 -62 -117
-134 -12 -55 -15 -59 -56 -77 -127 -54 -269 -176 -347 -297 -90 -138 -126
-260 -126 -425 0 -141 20 -228 82 -357 46 -95 61 -115 152 -205 83 -83 117
-109 192 -148 148 -75 221 -92 404 -91 142 0 162 2 240 28 334 109 554 383
577 718 6 91 -8 209 -33 281 -12 35 -13 68 -3 212 22 328 -21 487 -138 501
-28 4 -51 -1 -90 -21z m127 -42 c48 -44 62 -110 62 -303 0 -91 -6 -205 -13
-255 -7 -53 -13 -200 -13 -355 -1 -301 2 -289 -96 -422 -93 -126 -269 -242
-429 -283 -146 -37 -324 -29 -465 22 -117 42 -116 40 -55 76 30 16 99 64 154
106 163 124 268 162 466 164 65 1 115 5 113 8 -2 3 -32 12 -66 20 -75 16 -182
17 -413 5 -152 -8 -177 -7 -225 9 -87 28 -201 91 -255 140 l-50 45 40 -16 c22
-9 85 -33 140 -52 89 -32 111 -36 201 -36 96 -1 103 0 178 37 43 22 76 40 74
42 -2 2 -28 -3 -58 -12 -75 -20 -232 -12 -325 17 -113 35 -221 89 -234 117
-20 43 -12 59 43 102 50 39 65 60 81 117 8 31 -19 54 -63 54 -20 0 -55 6 -77
12 -40 12 -40 12 50 19 50 4 140 7 200 8 127 1 107 -8 272 128 126 103 172
123 283 123 l66 0 78 114 c96 142 178 233 231 257 54 25 69 24 105 -8z m-815
-5 c37 -29 89 -112 131 -209 18 -45 34 -84 34 -89 0 -4 -27 -10 -60 -14 -74
-9 -121 -27 -185 -75 -85 -63 -79 -69 -71 70 12 209 31 293 75 326 24 18 45
16 76 -9z m113 -367 c-1 -5 -59 -52 -127 -105 -119 -92 -125 -96 -174 -96 -29
0 -47 4 -42 9 35 31 226 169 255 183 36 19 94 24 88 9z m-628 -523 c0 -27 -2
-48 -6 -48 -11 0 -34 71 -34 107 l0 38 20 -25 c13 -17 20 -41 20 -72z" />
                <path d="M1429 1463 c-24 -26 -59 -71 -77 -100 l-33 -52 78 -75 c43 -41 81
-72 85 -68 15 15 49 218 46 276 -3 57 -5 61 -29 64 -19 2 -36 -8 -70 -45z" />
                <path d="M895 1110 c-22 -43 -19 -68 14 -101 48 -48 120 -37 146 23 18 45 9
64 -45 87 -69 30 -96 28 -115 -9z" />
        </g>
</svg>
