<?xml version="1.0" standalone="no"?>
<!DOCTYPE svg PUBLIC "-//W3C//DTD SVG 20010904//EN"
 "http://www.w3.org/TR/2001/REC-SVG-20010904/DTD/svg10.dtd">
<svg version="1.0" xmlns="http://www.w3.org/2000/svg"
 width="64.000000pt" height="64.000000pt" viewBox="0 0 64.000000 64.000000"
 preserveAspectRatio="xMidYMid meet">

<g transform="translate(0.000000,64.000000) scale(0.100000,-0.100000)"
fill="#000000" stroke="none">
<path d="M0 320 l0 -320 320 0 320 0 0 320 0 320 -320 0 -320 0 0 -320z m420
210 c0 -73 -106 -160 -194 -160 -36 0 -116 27 -116 39 0 3 7 15 15 25 13 18
19 19 48 8 76 -27 146 0 180 71 14 27 25 37 43 37 18 0 24 -5 24 -20z m110
-79 c15 -28 13 -36 -13 -50 -59 -31 -76 -129 -33 -192 20 -29 22 -38 11 -52
-18 -25 -31 -21 -61 19 -56 72 -40 200 32 264 41 35 50 37 64 11z m-162 -122
c4 -31 -20 -53 -47 -44 -45 14 -30 79 17 73 21 -2 28 -9 30 -29z m-135 -28
c34 -13 95 -68 111 -100 18 -35 27 -93 18 -108 -4 -7 -17 -10 -30 -7 -15 5
-23 17 -28 43 -13 76 -67 121 -146 121 -38 0 -48 4 -53 20 -3 11 -3 24 0 30 8
13 96 13 128 1z"/>
</g>
</svg>
